<svg width="32" height="32" viewBox="0 0 32 32" fill="none" xmlns="http://www.w3.org/2000/svg">
<path fill-rule="evenodd" clip-rule="evenodd" d="M4.00033 18.6666C4.73366 18.6666 5.33366 19.2666 5.33366 20L5.33366 25.3333C5.33366 25.6933 5.48033 26.0266 5.72033 26.28C5.97366 26.52 6.30699 26.6666 6.66699 26.6666H25.3337C25.6937 26.6666 26.027 26.52 26.2803 26.28C26.5337 26.04 26.667 25.6933 26.667 25.3333V20C26.667 19.2666 27.267 18.6666 28.0003 18.6666C28.7337 18.6666 29.3337 19.2666 29.3337 20V25.3333C29.3337 26.4 28.907 27.4133 28.1603 28.16C27.4137 28.9066 26.4003 29.3333 25.3337 29.3333H6.66699C5.60033 29.3333 4.58699 28.9066 3.84033 28.16C3.09366 27.4133 2.66699 26.4 2.66699 25.3333L2.66699 20C2.66699 19.2666 3.26699 18.6666 4.00033 18.6666Z" fill="#F7FBF5"/>
<path fill-rule="evenodd" clip-rule="evenodd" d="M23.6137 14.28L16.947 20.9466C16.827 21.0666 16.6803 21.16 16.5203 21.2266C16.4537 21.2533 16.4003 21.28 16.3337 21.28C16.227 21.32 16.1203 21.3333 16.0003 21.3333C15.8803 21.3333 15.7737 21.32 15.667 21.28C15.6003 21.28 15.547 21.2533 15.4803 21.2266C15.3203 21.16 15.1737 21.0666 15.0537 20.9466L8.38699 14.28C7.86699 13.76 7.86699 12.9066 8.38699 12.3866C8.90699 11.8666 9.76033 11.8666 10.2803 12.3866L14.667 16.7866V3.99996C14.667 3.26663 15.267 2.66663 16.0003 2.66663C16.7337 2.66663 17.3337 3.26663 17.3337 3.99996V16.7866L21.7203 12.3866C22.2403 11.8666 23.0937 11.8666 23.6137 12.3866C24.1337 12.9066 24.1337 13.76 23.6137 14.28Z" fill="#F7FBF5"/>
</svg>
